<?xml version="1.0" encoding="utf-8" ?>
<svg baseProfile="full" height="512px" version="1.1" width="1024px" xmlns="http://www.w3.org/2000/svg" xmlns:ev="http://www.w3.org/2001/xml-events" xmlns:xlink="http://www.w3.org/1999/xlink"><defs /><path d="M 337,66 L 336,67 L 333,67 L 332,68 L 331,68 L 330,69 L 329,69 L 325,73 L 325,74 L 324,75 L 324,77 L 323,78 L 323,364 L 324,365 L 324,367 L 325,368 L 325,369 L 328,372 L 329,372 L 331,374 L 334,374 L 335,375 L 688,375 L 689,374 L 691,374 L 692,373 L 693,373 L 698,368 L 698,367 L 699,366 L 699,365 L 700,364 L 700,77 L 699,76 L 699,75 L 698,74 L 698,73 L 693,68 L 692,68 L 691,67 L 688,67 L 687,66 Z" fill="black" /></svg>